#!OML:ASF E:/inclinewalkrobotboard/Project1/Captureday1/Session1/subject1.ASF
:FULLY-SPECIFIED
:DEGREES
176
root 0 0 0 -1.1694208044488708 -2.849285338781969 -0.8804776282234914
lowerback 10.947437049506116 0.5632902460272833 0.47825045103540453
upperback -1.11026893633441 0.881222694816296 0.9148490241658958
thorax -7.2845327741704535 0.40530620395697875 0.44838386922761486
lowerneck -13.419388505077432 -1.4142451693364677 0.20841229177253778
upperneck 19.051084950630706 -1.4113133520467582 -2.3356396973559366
head 8.21443171715531 -0.8129183187473186 -0.9997991830159063
rclavicle -4.634376289965061E-16 -2.3948123376194446E-16
rhumerus -11.619394509911317 -6.6595413315877 -67.18617712396883
rradius 43.087675194135116
rwrist 12.081763430807975
rhand -23.652249187873178 -5.769513474864246
rfingers 7.125020000000133
rthumb 3.051491274546825 -35.912870705734036
lclavicle -9.881099377754493E-16 -7.923881302636377E-16
lhumerus -12.723286586455535 -4.025728581824474 68.93015396054413
lradius 43.41027664686619
lwrist -4.907086669388886
lhand -33.205632701636915 -10.164616809579497
lfingers 7.125020000000132
lthumb -6.503255822713705 18.91294019567561
rfemur 9.104487709064745 5.927007074457908 34.83455393187258
rtibia 47.21679698297453
rfoot -8.1305383141917 -0.6244445317618528
rtoes 9.899728042821668
lfemur -12.132312740658286 -5.346214315833356 -20.454701136724253
ltibia 8.886154185658157
lfoot -13.836537613787964 6.010781860951623
ltoes 0.5481500670558344
177
root 0 0 0 -1.1764787336066802 -2.846720133266977 -0.8882250280578785
lowerback 10.944519076030241 0.5622431831740288 0.4803215547116749
upperback -1.1003567516005022 0.8807575916522311 0.9191537452303028
thorax -7.272078946331454 0.40485049595337613 0.45231351034307626
lowerneck -13.439954727273243 -1.423232558233518 0.19589187899297672
upperneck 19.051333646582517 -1.425687116249333 -2.318528655886996
head 8.218097022077714 -0.8188570391316388 -0.9932724215343888
rclavicle -4.648470272107686E-16 -2.2621625820602853E-16
rhumerus -11.852740589828368 -6.816015689479125 -67.32937699617787
rradius 42.86617117499699
rwrist 11.97148745702176
rhand -23.57382310962442 -5.386999036937978
rfingers 7.125020000000134
rthumb 3.1309350930082807 -35.53755241620386
lclavicle -9.9137623248519E-16 -7.9251320786646E-16
lhumerus -12.851145084902104 -3.9957480527441103 69.02259182725768
lradius 43.30614305807016
lwrist -4.833303846285524
lhand -33.16130309230708 -9.922328896098266
lfingers 7.125020000000132
lthumb -6.460667178530064 19.152693154515433
rfemur 6.372673139169606 5.139443402765465 33.43707051050654
rtibia 51.04561624732107
rfoot -6.00502969061389 -0.6942464408158848
rtoes 10.395288816456974
lfemur -6.809834674019096 -5.551852642198127 -22.765783355023174
ltibia 7.1816291588010195
lfoot -14.96901906264257 5.2629450897884436
ltoes 0.06317797756922694
178
root 0 0 0 -1.1809837122772573 -2.8449522653511163 -0.8932415629101725
lowerback 10.942610386961226 0.561509917852994 0.48148022119303424
upperback -1.093871868205178 0.8804789193238676 0.9219524394740882
thorax -7.263971345797579 0.40453965013135756 0.454945287718715
lowerneck -13.45308924723505 -1.4290411057846404 0.18773434174187548
upperneck 19.05135876716911 -1.43511760900114 -2.307605700889018
head 8.220438635150781 -0.822715386915071 -0.9890489703736812
rclavicle -4.655108312719241E-16 -2.1576225801310384E-16
rhumerus -12.024274055549352 -6.930813979463201 -67.43440677068983
rradius 42.70402929711382
rwrist 11.89073945825027
rhand -23.516370684311244 -5.10561810398876
rfingers 7.125020000000135
rthumb 3.189377185834782 -35.262488549828596
lclavicle -9.942420514607564E-16 -7.926571190894791E-16
lhumerus -12.920598955421292 -3.9795352743095593 69.07324170768622
lradius 43.248933909958076
lwrist -4.792267982405738
lhand -33.136858686526985 -9.787265607210896
lfingers 7.1250200000001325
lthumb -6.437135956306173 19.28248526504203
rfemur 2.648635875479549 4.137691544826285 31.56701739226918
rtibia 55.71774340166621
rfoot -3.374883316293097 -0.8720366336807217
rtoes 10.891482171286054
lfemur -2.0391087130986794 -5.632195625568763 -24.74159413765013
ltibia 6.47939895064075
lfoot -15.593915466780114 4.265336641322245
ltoes -0.41604981219722603
179
root 0 0 0 -1.181563442616963 -2.8441821081923804 -0.8941635603239919
lowerback 10.942144706500258 0.5611364994245083 0.4809076926496738
upperback -1.0923030390781392 0.880391161809229 0.9225838754134712
thorax -7.262293688161208 0.404427228348866 0.45576319423147427
lowerneck -13.455024423165357 -1.4301162383337218 0.18606403242836733
upperneck 19.050895577845736 -1.4374278772400402 -2.306172421576224
head 8.220824544128078 -0.8234944455585298 -0.9883124648760178
rclavicle -4.645348158392163E-16 -2.0703113913051813E-16
rhumerus -12.138531896328155 -7.007047489990494 -67.5034730861276
rradius 42.59858855603412
rwrist 11.837889871889159
rhand -23.478786154838563 -4.919069298440343
rfingers 7.125020000000135
rthumb 3.2279880635236724 -35.08298840471639
lclavicle -9.953323015549799E-16 -7.937293830452278E-16
lhumerus -12.878518903873326 -3.989890804895608 69.0442147922156
lradius 43.280893466209754
lwrist -4.813267911882583
lhand -33.15013245773145 -9.855477649292078
lfingers 7.125020000000132
lthumb -6.45005094344824 19.204611684312226
rfemur -4.762260906002181 2.352053915093456 27.98653275625899
rtibia 63.37788849454087
rfoot 0.9772540941994059 -1.4630078750398479
rtoes 11.338329536305267
lfemur 3.7708503171994696 -5.5530161969941965 -27.033763287897457
ltibia 6.9156860392191
lfoot -15.85156542407698 2.5687267279049353
ltoes -1.0981572444620102
180
root 0 0 0 -1.1772021993368558 -2.8450156063778027 -0.8897126329364574
lowerback 10.943674155284878 0.5614362565299823 0.4787664741841382
upperback -1.097439242409774 0.8806110965425645 0.9202656906535656
thorax -7.269162017400876 0.40461455958067893 0.4539680891390934
lowerneck -13.44285940134945 -1.4249827999891251 0.19302020881322368
upperneck 19.050306948131645 -1.4299866883848158 -2.316620943505846
head 8.218685507935463 -0.8202051566791961 -0.9920615610701073
rclavicle -4.631500796096555E-16 -2.069366580023251E-16
rhumerus -12.108308347361465 -6.987296114385005 -67.48394776182455
rradius 42.62960924656495
rwrist 11.853259076117755
rhand -23.48961814246898 -4.971243616169548
rfingers 7.125020000000135
rthumb 3.2170594742261533 -35.134924906703446
lclavicle -9.90622808475943E-16 -7.959707878622233E-16
lhumerus -12.732607211275619 -4.02495822798446 68.94070904738535
lradius 43.39757448819754
lwrist -4.893650849028971
lhand -33.19931162832585 -10.118756673857636
lfingers 7.125020000000132
lthumb -6.49751883442474 18.936905758289374
rfemur -10.300200673497493 1.2667757688755414 25.48362749787902
rtibia 67.23515687582625
rfoot 3.353339403254987 -2.137854199612761
rtoes 11.172646011272922
lfemur 6.690510249592071 -5.400904369219072 -28.136924613699094
ltibia 7.878873177088117
lfoot -15.766445163828754 1.4616279902941178
ltoes -1.5375381974438964
181
root 0 0 0 -1.1700564330493939 -2.8465628496867614 -0.8823684183637557
lowerback 10.946247488975844 0.5620293032028647 0.475719182858656
upperback -1.1060430162769765 0.8808914592599918 0.9163936259906788
thorax -7.2806754435866665 0.4049484170865961 0.45083311815439836
lowerneck -13.422943788688116 -1.4165717475815454 0.20467783484865204
upperneck 19.04939647632553 -1.4175433703911755 -2.333560073015225
head 8.215178461669815 -0.8148003402181553 -0.9982641682790326
rclavicle -4.608827304433039E-16 -2.1075962588466152E-16
rhumerus -12.014805529225038 -6.925850365717233 -67.42541355554013
rradius 42.720629226922036
rwrist 11.898554684015767
rhand -23.52167268536761 -5.128161310582379
rfingers 7.125020000000135
rthumb 3.184288672039316 -35.2898670708005
lclavicle -9.836632692911924E-16 -7.996753658822839E-16
lhumerus -12.500344620005396 -4.080915463489229 68.7754584076943
lradius 43.58359464197721
lwrist -5.022140511543824
lhand -33.27806357758984 -10.541652840144947
lfingers 7.125020000000131
lthumb -6.573648586266335 18.513009727301213
rfemur -15.606315043669953 0.49432794298672134 23.249457147379317
rtibia 69.00318428107545
rfoot 4.848386374302677 -3.0072129949762614
rtoes 10.569146882587543
lfemur 9.024521387131516 -5.197543399226827 -28.978451355250037
ltibia 9.187044066764294
lfoot -15.560122716772057 0.39531879913431967
ltoes -2.0011234699875757
182
root 0 0 0 -1.1615493034577122 -2.8484110502732913 -0.8736520352655283
lowerback 10.94933098151614 0.5627675606348927 0.4723073245982904
upperback -1.1163082100527477 0.8811954261249412 0.9117515995652279
thorax -7.294441102785531 0.40534155136234395 0.4470676129124364
lowerneck -13.399268802419476 -1.4066074251761558 0.21860456883430363
upperneck 19.048275038848637 -1.4027695023774314 -2.353570966998152
head 8.21097579630341 -0.8084135016397584 -1.0056272732331304
rclavicle -4.584410857183298E-16 -2.175768383687522E-16
rhumerus -11.881048313544332 -6.837992448320346 -67.34216307985037
rradius 42.84921778788045
rwrist 11.962784210647357
rhand -23.567045924809335 -5.351243874208471
rfingers 7.125020000000134
rthumb 3.137817952011523 -35.50976761795881
lclavicle -9.752033759564376E-16 -8.04343903037637E-16
lhumerus -12.20807795752512 -4.151552693833132 68.56741272530476
lradius 43.817946644514016
lwrist -5.183577920827078
lhand -33.37754778005808 -11.075528317733475
lfingers 7.125020000000129
lthumb -6.669599048738037 17.981061289138438
rfemur -20.28085523945097 0.07522826924791648 21.41401489569401
rtibia 68.70895221888395
rfoot 5.4833930960616115 -3.98832348264461
rtoes 9.624136076155743
lfemur 10.948822890709506 -4.960637708607833 -29.618991779773843
ltibia 10.753547860887828
lfoot -15.246950335610016 -0.6550466371578803
ltoes -2.5215056956675763
